<svg xmlns="http://www.w3.org/2000/svg" viewBox="0 0 442.4 442.4"><path d="M221.2 79.8a141.4 141.4 0 1 0 0 282.8 141.4 141.4 0 0 0 0-282.8zm0 260.4a119 119 0 1 1 0-238 119 119 0 0 1 0 238zm0-270.2a11.2 11.2 0 0 0 11.2-11.2V11.2a11.2 11.2 0 1 0-22.4 0v47.6A11.2 11.2 0 0 0 221.2 70z"/><path d="M98.5 114.3a11.2 11.2 0 0 0 15.8-15.9L80.7 64.8a11.2 11.2 0 0 0-15.8 15.9zM70 221.2A11.2 11.2 0 0 0 58.8 210H11.2a11.2 11.2 0 1 0 0 22.4h47.6A11.2 11.2 0 0 0 70 221.2zm28.5 106.9-33.7 33.6a11.2 11.2 0 0 0 15.9 15.9l33.6-33.7a11.2 11.2 0 0 0-15.8-15.8zm122.7 44.3c-6.2 0-11.2 5-11.2 11.2v47.6a11.2 11.2 0 1 0 22.4 0v-47.6a11.2 11.2 0 0 0-11.2-11.2zM344 328.1a11.2 11.2 0 0 0-16 15.9l33.6 33.6a11.2 11.2 0 0 0 15.8-15.9zM431.2 210h-47.6a11.2 11.2 0 1 0 0 22.4h47.6a11.2 11.2 0 1 0 0-22.4zM336 117.5c3 0 5.9-1.2 8-3.3l33.6-33.6a11.2 11.2 0 0 0-15.9-15.8l-33.6 33.6a11.2 11.2 0 0 0 8 19z"/></svg>