<svg xmlns="http://www.w3.org/2000/svg" viewBox="0 0 266 266"><path fill="none" stroke="#000" stroke-linecap="round" stroke-linejoin="round" stroke-miterlimit="10" stroke-width="11.2" d="M208.3 154.6a52.1 52.1 0 1 0-13-102.6 59.4 59.4 0 0 0-116.5 2.8 52.1 52.1 0 1 0-21 99.8m25 29.3c0-6.7 12-17.7 12-17.7s12.2 11 12.2 17.7a12.1 12.1 0 1 1-24.2 0zm38.1 64.4c0-6.7 12.1-17.8 12.1-17.8s12.1 11 12.1 17.8a12.1 12.1 0 1 1-24.2 0zm48.8-49.5c0-6.7 12.1-17.7 12.1-17.7s12.2 11 12.2 17.7a12.1 12.1 0 1 1-24.3 0zm0 0"/></svg>