<svg xmlns="http://www.w3.org/2000/svg" viewBox="0 0 335.9 348"><path stroke="#000" stroke-linecap="round" stroke-linejoin="round" stroke-miterlimit="10" stroke-width="11.2" d="m111.9 228-18.5 62 30.8-4.2-19.6 56.7 68-80.5-35.8-3.5 21-30.3zm0 0"/><path fill="none" stroke="#000" stroke-linecap="round" stroke-linejoin="round" stroke-miterlimit="10" stroke-width="11.2" d="M208.3 119.9c-4.6 0-9 .6-13 1.7a59.4 59.4 0 0 0-116.5 2.7 52.1 52.1 0 1 0-21 99.8h150.5a52.1 52.1 0 1 0 0-104.2zm0 0"/><path fill="none" stroke="#000" stroke-linecap="round" stroke-linejoin="round" stroke-miterlimit="10" stroke-width="11.2" d="M278.1 154.6a52.1 52.1 0 1 0-13-102.6 59.4 59.4 0 0 0-116.4 2.8 51.9 51.9 0 0 0-67 22.8"/></svg>