{
  "accessors": [
    {
      "bufferView": 2,
      "componentType": 5126,
      "count": 355,
      "max": [
        0.22617359459400177,
        0.25083521008491516,
        0.87003409862518311
      ],
      "min": [
        -0.22229020297527313,
        0.055293560028076172,
        0.41889169812202454
      ],
      "type": "VEC3"
    },
    {
      "bufferView": 2,
      "byteOffset": 4260,
      "componentType": 5126,
      "count": 355,
      "max": [
        0.99999982118606567,
        0.99991810321807861,
        1
      ],
      "min": [
        -0.99999982118606567,
        -0.99991768598556519,
        -1
      ],
      "type": "VEC3"
    },
    {
      "bufferView": 1,
      "componentType": 5126,
      "count": 355,
      "max": [
        1,
        1
      ],
      "min": [
        0,
        0
      ],
      "type": "VEC2"
    },
    {
      "bufferView": 0,
      "componentType": 5125,
      "count": 1524,
      "max": [
        354
      ],
      "min": [
        0
      ],
      "type": "SCALAR"
    },
    {
      "bufferView": 2,
      "byteOffset": 8520,
      "componentType": 5126,
      "count": 160,
      "max": [
        0.071085028350353241,
        0.33326730132102966,
        0.27378180623054504
      ],
      "min": [
        -0.067201733589172363,
        0.070765011012554169,
        0.017780419439077377
      ],
      "type": "VEC3"
    },
    {
      "bufferView": 2,
      "byteOffset": 10440,
      "componentType": 5126,
      "count": 160,
      "max": [
        1,
        1,
        0.98848080635070801
      ],
      "min": [
        -1,
        -1,
        -0.98848080635070801
      ],
      "type": "VEC3"
    },
    {
      "bufferView": 1,
      "byteOffset": 2840,
      "componentType": 5126,
      "count": 160,
      "max": [
        1,
        1
      ],
      "min": [
        0,
        0
      ],
      "type": "VEC2"
    },
    {
      "bufferView": 0,
      "byteOffset": 6096,
      "componentType": 5125,
      "count": 606,
      "max": [
        159
      ],
      "min": [
        0
      ],
      "type": "SCALAR"
    },
    {
      "bufferView": 2,
      "byteOffset": 12360,
      "componentType": 5126,
      "count": 4,
      "max": [
        0.081510119140148163,
        0.061226118355989456,
        0.36327320337295532
      ],
      "min": [
        -0.077626757323741913,
        0.036047101020812988,
        0.36327320337295532
      ],
      "type": "VEC3"
    },
    {
      "bufferView": 0,
      "byteOffset": 8520,
      "componentType": 5125,
      "count": 4,
      "max": [
        3
      ],
      "min": [
        0
      ],
      "type": "SCALAR"
    },
    {
      "bufferView": 2,
      "byteOffset": 12408,
      "componentType": 5126,
      "count": 1469,
      "max": [
        0.19842219352722168,
        0.19755749404430389,
        0.45132020115852356
      ],
      "min": [
        -0.19453880190849304,
        -0.4367918074131012,
        -0.0068463077768683434
      ],
      "type": "VEC3"
    },
    {
      "bufferView": 2,
      "byteOffset": 30036,
      "componentType": 5126,
      "count": 1469,
      "max": [
        1,
        1,
        1
      ],
      "min": [
        -1,
        -1,
        -1
      ],
      "type": "VEC3"
    },
    {
      "bufferView": 1,
      "byteOffset": 4120,
      "componentType": 5126,
      "count": 1469,
      "max": [
        1,
        1
      ],
      "min": [
        0,
        0
      ],
      "type": "VEC2"
    },
    {
      "bufferView": 0,
      "byteOffset": 8536,
      "componentType": 5125,
      "count": 5484,
      "max": [
        1468
      ],
      "min": [
        0
      ],
      "type": "SCALAR"
    }
  ],
  "asset": {
    "extras": {
      "author": "turnedupfish (https://sketchfab.com/turnedupfish)",
      "license": "CC-BY-4.0 (http://creativecommons.org/licenses/by/4.0/)",
      "source": "https://sketchfab.com/3d-models/low-poly-toilet-b997255f4299486fa612c455bf3216d7",
      "title": "Low-poly toilet"
    },
    "generator": "Sketchfab-9.31.1",
    "version": "2.0"
  },
  "bufferViews": [
    {
      "buffer": 0,
      "byteLength": 30472,
      "byteOffset": 0,
      "name": "floatBufferViews",
      "target": 34963
    },
    {
      "buffer": 0,
      "byteLength": 15872,
      "byteOffset": 30472,
      "byteStride": 8,
      "name": "floatBufferViews",
      "target": 34962
    },
    {
      "buffer": 0,
      "byteLength": 47664,
      "byteOffset": 46344,
      "byteStride": 12,
      "name": "floatBufferViews",
      "target": 34962
    }
  ],
  "buffers": [
    {
      "byteLength": 94008,
      "uri": "scene.bin"
    }
  ],
  "materials": [
    {
      "doubleSided": true,
      "name": "material_0",
      "pbrMetallicRoughness": {
        "baseColorFactor": [
          1,
          1,
          1,
          1
        ],
        "metallicFactor": 0,
        "roughnessFactor": 0.59999999999999998
      }
    },
    {
      "doubleSided": true,
      "emissiveFactor": [
        0,
        0,
        0
      ],
      "name": "toiled",
      "pbrMetallicRoughness": {
        "baseColorFactor": [
          0.80000000000000004,
          0.80000000000000004,
          0.80000000000000004,
          1
        ],
        "metallicFactor": 0,
        "roughnessFactor": 0
      }
    }
  ],
  "meshes": [
    {
      "name": "toiled-material",
      "primitives": [
        {
          "attributes": {
            "NORMAL": 1,
            "POSITION": 0,
            "TEXCOORD_0": 2
          },
          "indices": 3,
          "material": 1,
          "mode": 4
        }
      ]
    },
    {
      "name": "toiled-material",
      "primitives": [
        {
          "attributes": {
            "NORMAL": 5,
            "POSITION": 4,
            "TEXCOORD_0": 6
          },
          "indices": 7,
          "material": 1,
          "mode": 4
        }
      ]
    },
    {
      "primitives": [
        {
          "attributes": {
            "POSITION": 8
          },
          "indices": 9,
          "material": 0,
          "mode": 1
        }
      ]
    },
    {
      "name": "toiled-material",
      "primitives": [
        {
          "attributes": {
            "NORMAL": 11,
            "POSITION": 10,
            "TEXCOORD_0": 12
          },
          "indices": 13,
          "material": 1,
          "mode": 4
        }
      ]
    }
  ],
  "nodes": [
    {
      "children": [
        1
      ],
      "name": "RootNode (gltf orientation matrix)",
      "rotation": [
        -0.70710678118654746,
        -0,
        -0,
        0.70710678118654757
      ]
    },
    {
      "children": [
        2
      ],
      "matrix": [
        1,
        0,
        0,
        0,
        0,
        1,
        1.6081226229577292e-16,
        0,
        0,
        -1.6081226229577292e-16,
        1,
        0,
        0,
        6.9388939039072284e-17,
        0,
        1
      ],
      "name": "RootNode (model correction matrix)"
    },
    {
      "children": [
        3,
        5,
        7
      ],
      "name": "Collada visual scene group"
    },
    {
      "children": [
        4
      ],
      "name": "tank"
    },
    {
      "mesh": 0,
      "name": "toiled-material"
    },
    {
      "children": [
        6
      ],
      "name": "pipe"
    },
    {
      "mesh": 1,
      "name": "toiled-material"
    },
    {
      "children": [
        8,
        9
      ],
      "name": "bowl"
    },
    {
      "mesh": 2,
      "name": ""
    },
    {
      "mesh": 3,
      "name": "toiled-material"
    }
  ],
  "scene": 0,
  "scenes": [
    {
      "name": "OSG_Scene",
      "nodes": [
        0
      ]
    }
  ]
}

