<?xml version="1.0"?>

<svg xmlns="http://www.w3.org/2000/svg">
  <symbol id="battery" viewBox="0 0 500 500">
    <path d="M153 480h194a24 24 0 0 0 24-24V92a24 24 0 0 0-24-23H153a24 24 0 0 0-24 23v364a24 24 0 0 0 24 24zm42-191 56-93a6 6 0 0 1 11 4v44a6 6 0 0 0 6 7h32a6 6 0 0 1 6 9l-57 92a6 6 0 0 1-11-3v-44a6 6 0 0 0-6-7h-31a6 6 0 0 1-6-9zM323 26a6 6 0 0 0-6-6H183c-3 0-5 3-5 6v18h145z"/>
  </symbol>

  <symbol id="charging_station" viewBox="0 0 500 500">
    <path d="M434 20h-65c-38 0-71 24-82 60l-37 129v1l-52 195a40 40 0 0 1-78-11v-21h7c21 0 38-17 38-38V73c0-21-17-37-38-37H58V20H43v460h15V373h15v21a86 86 0 0 0 169 22l53-200c16-5 28-17 33-33l18-50c1-4 4-5 7-5h81c13 0 23-11 23-24V43c0-13-10-23-23-23ZM58 357V51h69c13 0 23 10 23 22v262c0 12-10 22-23 22zm169 56a70 70 0 0 1-138-19v-21h15v21a55 55 0 0 0 109 14l51-188h14zm169-301h-43c-10 0-19 6-22 16l-17 50c-5 15-20 26-36 26h-10l34-119c9-29 36-49 67-49h27zm46-8c0 4-4 8-8 8h-23V36h23c4 0 8 2 8 7z"/>
    <path d="M449 304h-52l22-122c0-4-3-8-7-9-3 0-6 1-7 3L282 337a8 8 0 0 0 6 13h52l-21 121c-1 4 2 8 6 9 3 0 6-1 8-3l123-161a8 8 0 0 0-7-12zM340 442l17-99c1-4-2-8-6-8h-47l94-124-18 99a8 8 0 0 0 8 9h46z"/>
  </symbol>

  <symbol id="odometer" viewBox="0 0 500 500">
  <path d="M290 110A233 233 0 0 0 19 300c-4 27-4 54 0 80 1 8 8 12 15 11s11-8 10-15a208 208 0 0 1 241-241 208 208 0 0 1 170 241 13 13 0 1 0 25 4 233 233 0 0 0-190-270Z"/>
  <path d="m255 308-7-1-125-108c-4-3-10-2-13 2-2 3-2 8 0 11l106 126a34 34 0 0 0 34 37c17 0 31-12 33-29 4-19-9-36-28-38zm-5 45a12 12 0 1 1 0-25 12 12 0 0 1 0 25zm20-188a21 21 0 1 1-40 0 21 21 0 0 1 40 0m88 23a21 21 0 1 1-40 0 21 21 0 0 1 40 0m65 65a21 21 0 1 1-40 0 21 21 0 0 1 40 0m24 87a21 21 0 1 1-40 0 21 21 0 0 1 40 0m-353 0a21 21 0 1 1-40 0 21 21 0 0 1 40 0m24-87a21 21 0 1 1-40 0 21 21 0 0 1 40 0m64-65a21 21 0 1 1-40 0 21 21 0 0 1 40 0"/>
  </symbol>

  <symbol id="thermometer" viewBox="0 0 500 500">
    <path d="m250 481-13.2-.7a113.8 113.8 0 0 1-98.4-94.4A113.4 113.4 0 0 1 196 269V73a54 54 0 0 1 108 0v195.7a112.7 112.7 0 0 1 21.5 183 111.3 111.3 0 0 1-75.3 28.7zm0-452.2a44.4 44.4 0 0 0-44 44.5v201.4l-3 1.4a103.4 103.4 0 0 0-54.9 108.4 104 104 0 0 0 89.8 86.2 103.4 103.4 0 0 0 58.8-194.2l-2.5-1.8V73.3a44.4 44.4 0 0 0-44.1-44.5Z"/>
    <path d="M250 412.1a44.3 44.3 0 1 1 0-88.6 44.3 44.3 0 0 1 0 88.6zm0-79a34.6 34.6 0 1 0 0 69.4 34.5 34.5 0 0 0 0-69z"/>
    <path d="M245 83h9.7v245.5H245z"/>
  </symbol>


  <symbol id="lock" viewBox="0 0 500 500">
    <path d="M226 315a24 24 0 1 1 48 0v25a24 24 0 1 1-48 0z"/>
    <path fill-rule="evenodd" d="M369 200v-74a119 119 0 0 0-238 0v74a95 95 0 0 0-71 92v94c0 53 43 96 95 96h190c53 0 95-43 95-96v-94c0-45-30-82-71-92zm-47-3v-71a71 71 0 1 0-143 0v71zm71 95c0-27-21-48-48-48H155c-26 0-47 21-47 48v94c0 27 21 48 47 48h190c27 0 48-21 48-48z"/>
  </symbol>

  <symbol id="defrost" viewBox="0 0 500 500">
    <path d="M471 153a428 428 0 0 0-313-53c-78 18-126 53-127 54l-11 9 118 212 14-10 24-13c-2 16-8 31-21 43l15 15c17-18 27-41 27-65 14-4 32-7 50-8 2 23-4 43-20 58l15 15c18-19 27-45 26-71 16 1 33 5 51 12-2 16-9 32-21 44l15 15c14-15 23-31 25-50l14 6 14 8 118-213zM353 333l-16-8-3-17-3-7c-9-27-18-53-1-74h18l-30-52-30 52h17c-12 27-1 56 6 80l3 8 1 3c-19-7-37-10-53-11l-2-6c-9-27-18-53-1-74h17l-30-52-30 52h18c-12 27-2 56 6 80-17 1-34 4-47 8l-2-7-3-7c-8-27-18-53-1-74h18l-30-52-30 52h18c-12 27-2 56 5 80l3 8 2 5-24 11-88-159c41-25 191-100 382 1Z"/>
  </symbol>
</svg>