<?xml version="1.0"?>

<svg xmlns="http://www.w3.org/2000/svg">
  <symbol id="home" viewBox="0 0 500 500">
    <path d="M323 226c-8-6-20-4-26 5-6 8-5 20 4 26a85 85 0 0 1-51 152 84 84 0 0 1-50-152c7-6 9-18 3-26-6-9-18-11-26-5a123 123 0 1 0 146 0z"/>
    <path d="M269 337V218a19 19 0 0 0-39 0v119a19 19 0 0 0 39 0z"/>
    <path d="m475 220-65-50V87c0-6-5-11-12-11h-21c-6 0-12 5-12 11v49L263 57c-8-6-19-6-27 0L25 220c-5 4-8 9-9 15a22 22 0 0 0 35 20l199-152 198 152c10 7 24 5 31-4 8-10 5-24-3-31z"/>
  </symbol>

  <symbol id="graph" viewBox="0 0 500 500">
    <path fill="currentColor" d="M250 232a70 70 0 0 0-70 69v108a70 70 0 1 0 140 0V301a70 70 0 0 0-70-69zm37 177a37 37 0 1 1-75 0V301a37 37 0 0 1 75 0zM86 120a70 70 0 0 0-70 69v220a70 70 0 1 0 140 0V189a70 70 0 0 0-70-69Zm37 289a37 37 0 0 1-74 0V189a37 37 0 0 1 74 0zM414 22a70 70 0 0 0-70 69v318a70 70 0 1 0 140 0V91a70 70 0 0 0-70-69Zm37 387a37 37 0 1 1-75 0V91a37 37 0 0 1 75 0z"/>
  </symbol>

  <symbol id="battery" viewBox="0 0 500 500">
    <path d="M153 480h194a24 24 0 0 0 24-24V92a24 24 0 0 0-24-23H153a24 24 0 0 0-24 23v364a24 24 0 0 0 24 24zm42-191 56-93a6 6 0 0 1 11 4v44a6 6 0 0 0 6 7h32a6 6 0 0 1 6 9l-57 92a6 6 0 0 1-11-3v-44a6 6 0 0 0-6-7h-31a6 6 0 0 1-6-9zM323 26a6 6 0 0 0-6-6H183c-3 0-5 3-5 6v18h145z"/>
  </symbol>

  <symbol id="charging_station" viewBox="0 0 500 500">
    <path d="M434 20h-65c-38 0-71 24-82 60l-37 129v1l-52 195a40 40 0 0 1-78-11v-21h7c21 0 38-17 38-38V73c0-21-17-37-38-37H58V20H43v460h15V373h15v21a86 86 0 0 0 169 22l53-200c16-5 28-17 33-33l18-50c1-4 4-5 7-5h81c13 0 23-11 23-24V43c0-13-10-23-23-23ZM58 357V51h69c13 0 23 10 23 22v262c0 12-10 22-23 22zm169 56a70 70 0 0 1-138-19v-21h15v21a55 55 0 0 0 109 14l51-188h14zm169-301h-43c-10 0-19 6-22 16l-17 50c-5 15-20 26-36 26h-10l34-119c9-29 36-49 67-49h27zm46-8c0 4-4 8-8 8h-23V36h23c4 0 8 2 8 7z"/>
    <path d="M449 304h-52l22-122c0-4-3-8-7-9-3 0-6 1-7 3L282 337a8 8 0 0 0 6 13h52l-21 121c-1 4 2 8 6 9 3 0 6-1 8-3l123-161a8 8 0 0 0-7-12zM340 442l17-99c1-4-2-8-6-8h-47l94-124-18 99a8 8 0 0 0 8 9h46z"/>
  </symbol>

  <symbol id="odometer" viewBox="0 0 500 500">
  <path d="M290 110A233 233 0 0 0 19 300c-4 27-4 54 0 80 1 8 8 12 15 11s11-8 10-15a208 208 0 0 1 241-241 208 208 0 0 1 170 241 13 13 0 1 0 25 4 233 233 0 0 0-190-270Z"/>
  <path d="m255 308-7-1-125-108c-4-3-10-2-13 2-2 3-2 8 0 11l106 126a34 34 0 0 0 34 37c17 0 31-12 33-29 4-19-9-36-28-38zm-5 45a12 12 0 1 1 0-25 12 12 0 0 1 0 25zm20-188a21 21 0 1 1-40 0 21 21 0 0 1 40 0m88 23a21 21 0 1 1-40 0 21 21 0 0 1 40 0m65 65a21 21 0 1 1-40 0 21 21 0 0 1 40 0m24 87a21 21 0 1 1-40 0 21 21 0 0 1 40 0m-353 0a21 21 0 1 1-40 0 21 21 0 0 1 40 0m24-87a21 21 0 1 1-40 0 21 21 0 0 1 40 0m64-65a21 21 0 1 1-40 0 21 21 0 0 1 40 0"/>
  </symbol>

  <symbol id="thermometer" viewBox="0 0 500 500">
    <path d="M236 494a108 108 0 0 0 55-200V61a55 55 0 1 0-110 0v233a108 108 0 0 0 55 200zm-47-192c6-3 2 6 3-241a44 44 0 0 1 88 0v236c0 2 1 4 3 5a96 96 0 1 1-94 0z"/>
    <path d="M236 463a77 77 0 0 0 37-144l-12-7V61c0-6-3-12-7-17-5-5-11-7-18-7-13 0-24 11-24 24v251c-3 2-53 20-53 74 0 43 35 77 77 77zm-16-143c6-3 2 7 3-259a13 13 0 0 1 26 0v254c0 2 1 4 3 5 4 4 49 19 49 66a65 65 0 0 1-130 0c0-48 44-61 49-66zm96-239h32v12h-32Zm0-44h55v11h-55Zm0 89h55v11h-55Zm0 44h40v11h-40Zm0 44h32v12h-32Zm0 45h55v11h-55Z"/>
  </symbol>

  <symbol id="lock" viewBox="0 0 500 500">
    <path d="M387 189h-16v-58C371 61 321 7 249 7c-71 0-120 55-120 124v58h-16c-33 0-60 27-61 61v182c0 34 27 61 61 61h274c33 0 60-27 61-61V250c0-34-28-61-61-61zm-228 0v-58c0-52 35-94 90-94s92 41 92 94v58H159zm258 243c0 17-14 30-30 30H113c-16 0-30-13-30-30V250c0-17 14-31 30-31h274c16 0 30 14 30 31zM280 311c0 11-6 21-15 26v50a15 15 0 1 1-30 0v-50a30 30 0 0 1 15-56c17-1 30 12 30 30z"/>
  </symbol>

  <symbol id="defrost" viewBox="0 0 500 500">
    <path d="M471 153a428 428 0 0 0-313-53c-78 18-126 53-127 54l-11 9 118 212 14-10 24-13c-2 16-8 31-21 43l15 15c17-18 27-41 27-65 14-4 32-7 50-8 2 23-4 43-20 58l15 15c18-19 27-45 26-71 16 1 33 5 51 12-2 16-9 32-21 44l15 15c14-15 23-31 25-50l14 6 14 8 118-213zM353 333l-16-8-3-17-3-7c-9-27-18-53-1-74h18l-30-52-30 52h17c-12 27-1 56 6 80l3 8 1 3c-19-7-37-10-53-11l-2-6c-9-27-18-53-1-74h17l-30-52-30 52h18c-12 27-2 56 6 80-17 1-34 4-47 8l-2-7-3-7c-8-27-18-53-1-74h18l-30-52-30 52h18c-12 27-2 56 5 80l3 8 2 5-24 11-88-159c41-25 191-100 382 1Z"/>
  </symbol>

  <symbol id="steer_wheel_heat" viewBox="0 0 500 500">
    <path d="m336 41-29-30a8 8 0 0 0-11 0l-29 30-2 5c-1 3 0 5 2 6a8 8 0 0 0 11 0l16-17c-1 30-6 40-17 68s-3 64 18 84c4 2 8 1 11-2 2-3 2-7 0-10a61 61 0 0 1-14-66c11-29 17-41 17-73l16 16c3 3 8 3 11 0s3-8 0-11zM208 11a8 8 0 0 0-11 0l-29 30c-3 3-3 8 0 11s8 3 11 0l16-16c0 29-6 40-17 67-11 28-3 64 19 84l6 2c2 0 4-1 5-3a8 8 0 0 0-1-11 62 62 0 0 1-14-66c11-29 17-41 18-73l15 16c3 3 8 3 11 0s3-8 0-11z"/>
    <path d="M250 492c-52 0-102-22-139-60a208 208 0 0 1 0-289 193 193 0 0 1 278 0 208 208 0 0 1 0 289c-37 38-87 60-139 60zm0-392c-48 0-94 20-128 55a191 191 0 0 0 0 266 178 178 0 0 0 256 0 191 191 0 0 0 0-266c-34-35-80-55-128-55zm-61 328a149 149 0 0 1-82-98c-1-5 0-10 3-15 3-4 8-6 13-6h15c9 0 19 3 27 8 8 6 14 13 18 23l27 67c2 4 2 8 0 12s-5 8-9 9c-4 2-8 2-12 0zm-66-103h-1v1c11 39 38 71 73 87h1l-27-67c-3-6-7-12-13-16-5-3-12-5-18-5zm171 100c-3-3-4-6-5-9s0-6 1-10l27-66c4-10 10-17 18-23 8-5 18-8 27-8h15c5 0 10 2 13 6 3 5 4 10 3 15a156 156 0 0 1-82 98 15 15 0 0 1-18-3zm68-100c-6 0-13 2-18 5-6 4-10 9-13 16l-27 67h1a136 136 0 0 0 73-88h-1zm17-48c-27-5-31-4-66-5-6 0-12-3-17-9a59 59 0 0 0-46-23c-18 0-35 9-46 23-4 6-10 9-17 9-35 1-38 0-66 5-4 1-9-1-12-4-4-4-5-9-4-14 6-35 24-67 51-90a145 145 0 0 1 189 0c27 23 45 55 51 90a15 15 0 0 1-17 18zm-71-24c1 2 3 3 5 3 36 1 39 0 67 5-8-42-34-78-71-97s-81-19-118 0-64 55-72 97c28-5 32-4 67-5 3 0 5-1 6-3 14-18 35-29 58-29s44 11 58 29z"/>
  </symbol>

  <symbol id="air_conditionning" viewBox="0 0 500 500">
    <path d="M363.2 125.2a125 125 0 0 0-124.3 112.6 101.5 101.5 0 0 1-90.4-101c0-51.8 39.1-95.1 89.9-101v88.4c0 6.3 5.3 11.6 11.6 11.6s11.6-5.3 11.6-11.6V23.7c0-6.4-5.3-11.6-11.6-11.6a125 125 0 0 0-124.8 124.7 125 125 0 0 0 112.6 124.3 101.5 101.5 0 0 1-101 90.4c-51.8 0-95.1-39.1-101-89.9h88.4c6.3 0 11.6-5.3 11.6-11.6s-5.3-11.6-11.6-11.6H23.7c-6.4 0-11.6 5.3-11.6 11.6a125 125 0 0 0 124.7 124.8 125 125 0 0 0 124.3-112.6 101.5 101.5 0 0 1 90.4 101c0 51.8-39.1 95.1-89.9 101v-88.4c0-6.3-5.3-11.6-11.6-11.6s-11.6 5.3-11.6 11.6v100.5c0 6.4 5.3 11.6 11.6 11.6a125 125 0 0 0 124.8-124.7 125 125 0 0 0-112.6-124.3 101.5 101.5 0 0 1 101-90.4c51.8 0 95.1 39.1 101 89.9h-88.4c-6.3 0-11.6 5.3-11.6 11.6s5.3 11.6 11.6 11.6h100.5c6.4 0 11.6-5.3 11.6-11.6a125 125 0 0 0-124.7-124.8z"/>
  </symbol>

  <symbol id="rearview_mirror_heat" viewBox="0 0 500 500">
    <path d="M97 148a6 6 0 0 0-8 0l-20 20a6 6 0 0 0 8 9l11-12c-2 29-17 31-17 65 0 37 17 37 17 71a6 6 0 0 0 12 0c0-37-18-38-18-71 0-31 16-32 18-63l10 9a6 6 0 1 0 8-8zm68 0a6 6 0 0 0-8 0l-21 20a6 6 0 1 0 8 9l11-12c-1 29-17 31-17 65 0 37 17 37 17 71a6 6 0 0 0 12 0c0-37-17-38-17-71 0-31 15-32 17-63l10 9a6 6 0 0 0 8-8zm88 20-21-20c-2-2-6-2-8 0l-20 20a6 6 0 0 0 8 9l11-12c-2 29-18 31-18 65 0 37 18 37 18 71a6 6 0 0 0 12 0c0-37-18-38-18-71 0-31 15-32 17-63l10 9a6 6 0 0 0 9-8z"/>
    <path d="M360 157c-1 0-34 10-63-21l-3-14c-12-55-70-61-124-46-22 6-70 21-108 35a87 87 0 0 0-55 81v22a72 72 0 0 0 72 72h122c30 0 59-13 79-35 31 11 47 51 48 52 0 2 2 3 5 3h29a6 6 0 0 0 6-5V162a6 6 0 0 0-8-5zM201 274H79a60 60 0 0 1-60-60v-22a75 75 0 0 1 48-70c37-14 84-29 106-35 46-13 99-10 109 37l11 59c1 22-7 44-22 60a97 97 0 0 1-70 31zm155 21h-19c-5-11-21-41-49-54 21-29 18-54 12-86 16 12 36 17 56 15z"/>
  </symbol>

  <symbol id="compass" viewBox="0 0 500 500">
    <path fill="currentColor" d="M421 463 269 26a17 17 0 0 0-31 0L86 463a17 17 0 0 0 27 19l140-110 141 110a17 17 0 0 0 25-5 17 17 0 0 0 2-14zM264 338a17 17 0 0 0-21 0l-107 82L253 83l118 337Z"/>
  </symbol>

  <symbol id="drop" viewBox="0 0 500 500">
    <path d="m373 236-1-2C332 141 262 30 258 23a9 9 0 0 0-16 0c-3 6-46 73-83 147-31 60-59 124-59 160a150 150 0 0 0 150 151 150 150 0 0 0 150-151c0-23-11-57-27-94zM250 462a132 132 0 0 1-131-132c0-32 25-90 54-146a1423 1423 0 0 1 9-19c27-50 55-97 68-118a1917 1917 0 0 1 108 203c14 32 23 61 23 80a132 132 0 0 1-131 132z"/>
    <path d="M358 250a125 125 0 0 1-115-35 105 105 0 0 0-70-31 1423 1423 0 0 1 9-19 123 123 0 0 1 75 37 106 106 0 0 0 94 30l7 18z"/>
  </symbol>
</svg>