<?xml version="1.0"?>

<svg xmlns="http://www.w3.org/2000/svg">
  <symbol id="battery" viewBox="0 0 233 443">
    <path d="M23 443h187a23 23 0 0 0 23-23V70a23 23 0 0 0-23-23H23A23 23 0 0 0 0 70v350a23 23 0 0 0 23 23zm41-184 53-89a6 6 0 0 1 11 3v43a6 6 0 0 0 6 6h31a6 6 0 0 1 5 9l-54 89a6 6 0 0 1-11-3v-43a6 6 0 0 0-6-6H69a6 6 0 0 1-5-9zM187 6a6 6 0 0 0-6-6H52c-3 0-5 3-5 6v17h140z" />
  </symbol>

  <symbol id="charging_station" viewBox="0 0 473 525">
    <path d="M446 0h-74c-43 0-81 28-93 69l-42 147v1l-60 222a46 46 0 0 1-89-12v-24h8c24 0 44-20 44-44V61c0-24-20-43-44-43H18V0H0v525h18V403h17v24a98 98 0 0 0 192 25l61-228c18-6 32-20 38-38l20-57c1-4 4-6 8-6h92c15 0 27-12 27-27V26c0-14-12-26-27-26ZM18 385V35h78c15 0 27 12 27 26v298c0 14-12 26-27 26zm192 63a80 80 0 0 1-157-21v-24h17v24a63 63 0 0 0 124 16l58-215h17zm193-343h-49c-11 0-22 7-25 18l-19 57c-6 18-23 30-42 30h-11l39-136c10-33 41-56 76-56h31Zm52-9c0 5-4 9-9 9h-26V18h26c5 0 9 3 9 8z" />
    <path d="M464 324h-60l25-139c0-5-3-9-8-10-3 0-6 1-8 3L273 362a9 9 0 0 0 7 14h59l-24 139c-1 4 2 9 7 10 3 0 7-1 9-3l140-184a9 9 0 0 0-7-14zM339 482l20-113c1-5-3-9-7-10h-54l107-141-20 113a9 9 0 0 0 9 10h52z" />
  </symbol>

  <symbol id="odometer" viewBox="0 0 432.6 277">
    <path d="M253 3A215 215 0 0 0 3 179c-4 25-4 50 0 74 1 7 7 11 14 10 6-1 10-7 9-14A192 192 0 0 1 249 26a192 192 0 0 1 157 223 12 12 0 1 0 23 4A215 215 0 0 0 253 3z" />
    <path d="m221 186-7-1L99 86c-4-3-9-2-12 1-2 3-2 8 0 11l98 116a31 31 0 0 0 31 34c16 0 29-11 31-27 3-17-9-33-26-35zm-5 42a11 11 0 1 1 0-23 11 11 0 0 1 0 23zm19-174a19 19 0 1 1-37 0 19 19 0 0 1 37 0m81 21a19 19 0 1 1-37 0 19 19 0 0 1 37 0m60 60a19 19 0 1 1-37 0 19 19 0 0 1 37 0m22 81a19 19 0 1 1-37 0 19 19 0 0 1 37 0m-326 0a19 19 0 1 1-37 0 19 19 0 0 1 37 0m22-81a19 19 0 1 1-37 0 19 19 0 0 1 37 0m59-60a19 19 0 1 1-37 0 19 19 0 0 1 37 0" />
  </symbol>

  <symbol id="thermometer" viewBox="0 0 62.9 128.7">
    <path d="m31.5 128.7-3.7-.2A31.7 31.7 0 0 1 .4 102.2a31.6 31.6 0 0 1 16-32.6V15a15 15 0 0 1 30.1 0v54.5a31.4 31.4 0 0 1 6 51 31 31 0 0 1-21 8zm0-126c-6.8 0-12.3 5.6-12.3 12.4v56.1l-.8.4a28.8 28.8 0 0 0-15.3 30.2 29 29 0 0 0 25 24 28.8 28.8 0 0 0 16.4-54.1l-.7-.5V15.1c0-6.8-5.5-12.4-12.3-12.4z" />
    <path d="M31.5 109.5a12.3 12.3 0 1 1 0-24.7 12.3 12.3 0 0 1 0 24.7zm0-22a9.6 9.6 0 1 0 0 19.3 9.6 9.6 0 0 0 0-19.2z" />
    <path d="M30.1 17.8h2.7v68.4h-2.7z" />
  </symbol>

  <symbol id="lock" viewBox="0 0 373 467">
    <path d="M163 303a23 23 0 1 1 47 0v24a23 23 0 1 1-47 0z" />
    <path fill-rule="evenodd" d="M303 190v-73a117 117 0 0 0-233 0v73a93 93 0 0 0-70 90v93c0 52 42 94 93 94h187c52 0 93-42 93-94v-93c0-44-29-80-70-90zm-46-3v-70a70 70 0 1 0-140 0v70zm70 93c0-26-21-47-47-47H93c-25 0-46 21-46 47v93c0 26 21 47 46 47h187c26 0 47-21 47-47z" />
  </symbol>

  <symbol id="defrost" viewBox="0 0 494 340">
    <path d="M480 67a456 456 0 0 0-333-57C64 29 13 67 11 68L0 77l125 226 15-10 26-14c-2 17-9 33-22 46l16 15c18-19 28-43 28-69 15-4 34-7 54-8 2 24-5 45-22 62l16 15c20-20 29-47 28-75 17 1 35 5 54 13-2 17-9 34-22 47l16 15c15-15 24-33 27-53l15 7 14 8L494 75zM355 258l-17-8-4-18-3-8c-9-28-19-56-1-78h19l-32-56-32 56h19c-13 28-2 59 6 85l3 8 1 3c-20-7-39-10-56-11l-3-7c-9-28-19-56-1-78h19l-32-56-32 56h19c-13 28-2 59 6 85-18 1-36 4-50 8l-2-7-3-8c-9-28-19-56-1-78h19l-32-56-32 56h19c-13 28-2 59 6 85l3 8 2 6-26 11L43 87c44-27 204-107 407 1z" />
  </symbol>
</svg>
